<svg width="208" height="94" viewBox="0 0 208 94" fill="none" xmlns="http://www.w3.org/2000/svg">
<path d="M47.4027 63.6416C43.7333 63.3003 39.936 62.8309 36.0107 62.2336C32.1707 61.5509 28.544 60.7403 25.1307 59.8016C24.96 59.7163 24.576 59.5883 23.9787 59.4176C23.3813 59.2469 23.0827 59.0763 23.0827 58.9056C23.0827 58.6496 23.3813 58.4789 23.9787 58.3936C24.576 58.3083 24.96 58.2656 25.1307 58.2656C26.8373 58.0949 29.0133 58.0096 31.6587 58.0096C34.304 57.9243 36.48 58.0096 38.1867 58.2656C39.808 58.5216 41.6853 58.7349 43.8187 58.9056C46.0373 59.0763 48.256 59.1189 50.4747 59.0336C52.6933 58.9483 54.8267 58.7349 56.8747 58.3936C59.008 58.0523 60.8427 57.5403 62.3787 56.8576C63.0613 56.6016 63.8293 56.0896 64.6827 55.3216C65.536 54.5536 66.176 53.7856 66.6027 53.0176C63.872 54.8096 60.8427 55.9189 57.5147 56.3456C54.1867 56.7723 50.688 56.8576 47.0187 56.6016C43.4347 56.3456 39.7653 55.9616 36.0107 55.4496C32.3413 54.9376 28.7147 54.5963 25.1307 54.4256C22.8267 54.3403 20.4373 54.4256 17.9627 54.6816C15.5733 54.9376 13.2267 55.4496 10.9227 56.2176C8.70401 56.9856 6.65601 58.0096 4.77867 59.2896C2.90134 60.5696 1.36534 62.1483 0.170669 64.0256C-5.66244e-07 64.4523 -0.0426641 64.5376 0.042663 64.2816V63.5136C0.725341 60.1003 2.304 57.5403 4.77867 55.8336C7.33867 54.0416 10.112 52.6763 13.0987 51.7376C14.208 47.1296 15.488 42.5643 16.9387 38.0416C18.3893 33.5189 19.712 29.1243 20.9067 24.8576C22.1867 20.5909 23.2107 16.4523 23.9787 12.4416C24.832 8.43093 25.216 4.54827 25.1307 0.793597C25.216 0.622933 25.216 0.452266 25.1307 0.281596C25.1307 0.110932 25.216 0.0255995 25.3867 0.0255995C25.5573 -0.0597333 25.6427 0.0682688 25.6427 0.409602C25.728 0.665599 25.7707 0.836263 25.7707 0.921596C26.88 4.67626 27.3067 8.6016 27.0507 12.6976C26.7947 16.7083 26.1547 20.8043 25.1307 24.9856C24.192 29.1669 22.9973 33.4336 21.5467 37.7856C20.1813 42.0523 18.9013 46.3616 17.7067 50.7136L21.0347 50.3296C21.4613 48.3669 21.888 46.3616 22.3147 44.3136C22.8267 42.2656 23.3387 40.4736 23.8507 38.9376C24.0213 38.4256 24.2773 37.4016 24.6187 35.8656C25.0453 34.2443 25.472 32.3243 25.8987 30.1056C26.3253 27.8869 26.752 25.4976 27.1787 22.9376C27.6907 20.3776 28.0747 17.9029 28.3307 15.5136C28.672 13.1243 28.8427 10.9483 28.8427 8.9856C28.928 7.02293 28.8427 5.48693 28.5867 4.3776C28.5867 3.6096 28.6293 3.2256 28.7147 3.2256C28.8853 3.2256 29.056 3.3536 29.2267 3.6096C29.3973 3.78026 29.5253 3.95093 29.6107 4.1216C30.5493 5.57227 31.232 7.3216 31.6587 9.3696C32.1707 11.4176 32.4693 13.5936 32.5547 15.8976C32.7253 18.1163 32.6827 20.3349 32.4267 22.5536C32.256 24.7723 31.9573 26.6923 31.5307 28.3136C30.5067 31.8976 29.3973 35.5669 28.2027 39.3216C27.008 43.0763 25.728 46.7456 24.3627 50.3296H27.1787C27.52 48.8789 27.9467 47.4283 28.4587 45.9776C28.9707 44.5269 29.44 43.0763 29.8667 41.6256C30.976 37.6149 32.0853 33.5189 33.1947 29.3376C34.304 25.0709 34.944 20.5056 35.1147 15.6416C35.1147 15.2149 35.1573 15.0016 35.2427 15.0016C35.4133 15.0016 35.4987 15.0869 35.4987 15.2576L35.7547 15.7696C36.5227 17.6469 36.864 20.0363 36.7787 22.9376C36.7787 25.8389 36.5227 28.9109 36.0107 32.1536C35.4987 35.3109 34.816 38.5536 33.9627 41.8816C33.1947 45.1243 32.4693 48.0683 31.7867 50.7136C34.944 50.9696 37.9733 51.3109 40.8747 51.7376C43.8613 52.1643 46.848 52.5483 49.8347 52.8896C50.944 48.2816 52.1813 43.7589 53.5467 39.3216C54.9973 34.7989 56.32 30.4469 57.5147 26.2656C58.7947 21.9989 59.8187 17.8603 60.5867 13.8496C61.44 9.83893 61.824 5.99893 61.7387 2.3296C61.7387 1.90293 61.824 1.6896 61.9947 1.6896C62.1653 1.6896 62.2933 1.77493 62.3787 1.9456C62.464 2.11627 62.5067 2.24427 62.5067 2.3296C63.616 6.1696 64 10.1803 63.6587 14.3616C63.4027 18.4576 62.7627 22.6389 61.7387 26.9056C60.7147 31.1723 59.4773 35.5243 58.0267 39.9616C56.576 44.3136 55.2533 48.7083 54.0587 53.1456C54.5707 53.3163 55.0827 53.3589 55.5947 53.2736C56.192 53.1883 56.7893 53.1456 57.3867 53.1456C57.728 51.0123 58.1973 48.8363 58.7947 46.6176C59.392 44.3136 59.9467 42.3509 60.4587 40.7296C60.6293 40.2176 60.8853 39.1936 61.2267 37.6576C61.6533 36.0363 62.08 34.1163 62.5067 31.8976C62.9333 29.6789 63.36 27.2896 63.7867 24.7296C64.2987 22.1696 64.6827 19.6949 64.9387 17.3056C65.28 14.8309 65.4507 12.6123 65.4507 10.6496C65.536 8.68693 65.4507 7.15093 65.1947 6.0416C65.024 5.44427 65.0667 5.10293 65.3227 5.0176C65.4933 4.93226 65.664 5.0176 65.8347 5.2736C66.0053 5.44426 66.1333 5.61493 66.2187 5.7856C67.1573 7.23626 67.8827 8.9856 68.3947 11.0336C68.9067 13.0816 69.2053 15.2149 69.2907 17.4336C69.4613 19.6523 69.4187 21.8709 69.1627 24.0896C68.992 26.3083 68.6933 28.2283 68.2667 29.8496C67.2427 33.6896 66.048 37.5723 64.6827 41.4976C63.3173 45.4229 61.9093 49.3056 60.4587 53.1456L63.6587 52.6336C64.0853 51.1829 64.5547 49.6896 65.0667 48.1536C65.5787 46.5323 66.048 44.9536 66.4747 43.4176C67.6693 39.3216 68.7787 35.1829 69.8027 31.0016C70.912 26.7349 71.552 22.2123 71.7227 17.4336V16.7936C71.7227 16.7083 71.7653 16.6656 71.8507 16.6656C72.0213 16.6656 72.192 16.9216 72.3627 17.4336C73.3867 19.7376 73.7707 22.7243 73.5147 26.3936C73.2587 30.0629 72.7467 33.9029 71.9787 37.9136C71.2107 41.8389 70.3147 45.6789 69.2907 49.4336C68.2667 53.1029 67.4987 56.0469 66.9867 58.2656C66.048 62.3616 64.8533 66.5856 63.4027 70.9376C61.952 75.2896 60.672 79.0869 59.5627 82.3296C59.3067 83.3536 58.9653 83.8656 58.5387 83.8656C58.368 83.7803 58.2827 83.5243 58.2827 83.0976C58.368 82.6709 58.4107 82.2443 58.4107 81.8176C58.5813 78.1483 58.9227 74.5216 59.4347 70.9376C60.032 67.2683 60.8 63.5136 61.7387 59.6736C59.6053 61.1243 57.1733 62.1909 54.4427 62.8736C51.712 63.5563 49.3653 63.8123 47.4027 63.6416Z" fill="white"/>
<path d="M21.8027 80.1536C21.9733 76.0576 22.3573 72.0469 22.9547 68.1216L18.6027 67.6096L14.5067 66.8416C14.1653 71.4496 14.2933 76.0149 14.8907 80.5376C15.488 84.9749 16.768 89.0709 18.7307 92.8256L18.9867 93.3376C18.9867 93.7643 18.7307 93.7643 18.2187 93.3376C14.8053 89.5829 12.5867 85.4016 11.5627 80.7936C10.624 76.1003 10.3253 71.2789 10.6667 66.3296L7.85068 65.8176C7.424 65.8176 7.04001 65.7323 6.69867 65.5616C6.44267 65.3909 6.31467 65.2203 6.31467 65.0496C6.31467 64.8789 6.48534 64.7509 6.82667 64.6656C7.168 64.5803 7.46667 64.4949 7.72267 64.4096C12.5867 63.3856 17.4507 63.0016 22.3147 63.2576C27.1787 63.5136 32.128 63.9403 37.1627 64.5376C40.32 64.8789 43.52 65.1776 46.7627 65.4336C50.0053 65.6896 53.4187 65.3909 57.0027 64.5376C57.344 64.4523 57.5573 64.4949 57.6427 64.6656C57.6427 64.7509 57.472 64.9643 57.1307 65.3056C55.68 66.6709 53.7173 67.6096 51.2427 68.1216C50.816 72.7296 50.8587 77.2949 51.3707 81.8176C51.8827 86.2549 53.1627 90.0949 55.2107 93.3376C55.4667 93.5936 55.4667 93.7216 55.2107 93.7216C55.1253 93.7216 55.04 93.6789 54.9547 93.5936C54.8693 93.5083 54.7413 93.4229 54.5707 93.3376C52.9493 91.9723 51.6267 90.3936 50.6027 88.6016C49.664 86.7243 48.9387 84.7189 48.4267 82.5856C47.9147 80.4523 47.5733 78.2336 47.4027 75.9296C47.3173 73.5403 47.3173 71.1509 47.4027 68.7616C45.6107 68.9323 43.776 69.0176 41.8987 69.0176C40.0213 69.0176 38.1867 68.9749 36.3947 68.8896C34.6027 68.8043 32.896 68.7189 31.2747 68.6336C29.6533 68.4629 28.2453 68.3349 27.0507 68.2496C26.368 70.5536 25.6427 72.7723 24.8747 74.9056C24.1067 76.9536 23.4667 78.8309 22.9547 80.5376L22.4427 81.8176C22.272 82.1589 22.1013 82.2443 21.9307 82.0736C21.76 82.0736 21.6747 81.8603 21.6747 81.4336C21.76 81.0069 21.8027 80.5803 21.8027 80.1536Z" fill="white"/>
<path d="M56.7467 85.9136C57.1733 87.5349 57.5573 88.9856 57.8987 90.2656C58.24 91.5456 58.7093 92.5696 59.3067 93.3376L59.5627 93.5936C59.648 93.7643 59.6053 93.8923 59.4347 93.9776C59.0933 93.9776 58.624 93.7643 58.0267 93.3376C57.088 92.6549 56.2347 91.8869 55.4667 91.0336C54.784 90.1803 54.2293 88.4736 53.8027 85.9136C53.632 84.8896 53.5467 83.6523 53.5467 82.2016C53.5467 80.7509 53.5893 79.3856 53.6747 78.1056C53.76 76.7403 53.888 75.5883 54.0587 74.6496C54.3147 73.7109 54.5707 73.2843 54.8267 73.3696C54.9973 73.3696 55.1253 73.5829 55.2107 74.0096C55.296 74.4363 55.3813 74.9056 55.4667 75.4176C55.552 75.9296 55.5947 76.4416 55.5947 76.9536C55.68 77.4656 55.7227 77.8496 55.7227 78.1056C55.8933 79.5563 56.0213 80.9216 56.1067 82.2016C56.2773 83.4816 56.4907 84.7189 56.7467 85.9136Z" fill="white"/>
<path d="M20.1387 84.2496C20.6507 87.3216 21.4613 90.1803 22.5707 92.8256C22.7413 93.4229 22.784 93.7216 22.6987 93.7216C22.272 93.7216 21.8027 93.4656 21.2907 92.9536C20.1813 91.6736 19.328 90.5216 18.7307 89.4976C18.2187 88.4736 17.7493 86.7243 17.3227 84.2496C17.152 83.3109 17.024 82.1163 16.9387 80.6656C16.9387 79.2149 16.9813 77.8069 17.0667 76.4416C17.152 75.0763 17.28 73.9243 17.4507 72.9856C17.7067 72.0469 17.9627 71.5776 18.2187 71.5776C18.304 71.5776 18.3893 71.7909 18.4747 72.2176C18.6453 72.6443 18.7733 73.1563 18.8587 73.7536C18.944 74.2656 19.0293 74.8203 19.1147 75.4176C19.2 75.9296 19.2427 76.2709 19.2427 76.4416C19.4133 77.8923 19.5413 79.2576 19.6267 80.5376C19.7973 81.8176 19.968 83.0549 20.1387 84.2496Z" fill="white"/>
<path d="M4.52267 63.6416C3.41333 64.2389 2.64534 64.7509 2.21867 65.1776C1.79201 65.6043 1.28 66.1589 0.682662 66.8416C0.341339 67.2683 0.170669 67.3963 0.170669 67.2256V66.5856C0.512008 65.3056 0.938674 64.2816 1.45067 63.5136C1.96268 62.7456 2.81601 61.8923 4.01067 60.9536C4.608 60.4416 5.41867 60.0149 6.44267 59.6736C7.552 59.3323 8.61867 59.1189 9.64267 59.0336C10.6667 58.8629 11.5627 58.8203 12.3307 58.9056C13.0987 58.9056 13.4827 59.0336 13.4827 59.2896C13.4827 59.5456 12.9707 59.8869 11.9467 60.3136C11.008 60.7403 10.4107 61.0389 10.1547 61.2096C9.13068 61.6363 8.14934 62.0629 7.21066 62.4896C6.272 62.8309 5.37601 63.2149 4.52267 63.6416Z" fill="white"/>
<path d="M192.123 57.8176V75.5456C192.133 78.9283 192.987 81.5736 194.683 83.4816C196.389 85.3589 198.736 86.2976 201.723 86.2976C202.747 86.2976 203.749 86.1269 204.731 85.7856C205.755 85.4443 206.693 84.9536 207.547 84.3136L205.243 80.1536C204.773 80.4949 204.283 80.7723 203.771 80.9856C203.301 81.1563 202.789 81.2416 202.235 81.2416C201.339 81.2416 200.571 81.0283 199.931 80.6016C199.291 80.1323 198.8 79.4709 198.459 78.6176C198.117 77.7643 197.947 76.7189 197.947 75.4816V57.8176H206.011V53.0176H197.947V40.2176L192.123 40.1536V53.0176H188.411V57.8176H192.123Z" fill="white"/>
<path fill-rule="evenodd" clip-rule="evenodd" d="M94.2907 81.9V85.3376H100.115V63.3216C100.094 61.1974 99.5604 59.2987 98.5147 57.6256C97.4907 55.8763 96.0827 54.5109 94.2907 53.5296C92.5576 52.5574 90.5522 52.0667 88.2747 52.0577L88.2453 52.0576L88.2107 52.0576C86.2303 52.0661 84.417 52.4716 82.7707 53.2736C81.1493 54.0843 79.8053 55.1936 78.7387 56.6016C77.7147 58.0096 77.0747 59.6736 76.8187 61.5936L82.1947 62.6816C82.408 60.7616 83.0693 59.3536 84.1787 58.4576C85.3229 57.5253 86.6776 57.056 88.2428 57.0497C90.02 57.0568 91.46 57.6541 92.5627 58.8416C93.7147 60.0363 94.2907 61.5723 94.2907 63.4496V65.8176H87.4427C85.2667 65.8176 83.3253 66.2656 81.6187 67.1616C79.912 68.0576 78.5467 69.2736 77.5227 70.8096C76.5413 72.3029 76.0507 74.0523 76.0507 76.0576C76.0507 77.9776 76.52 79.7269 77.4587 81.3056C78.3973 82.8416 79.656 84.0576 81.2347 84.9536C82.8133 85.8496 84.5627 86.2976 86.4827 86.2976C88.5307 86.2976 90.344 85.6789 91.9227 84.4416C92.8155 83.7367 93.6049 82.8895 94.2907 81.9ZM94.2907 70.2976H87.7627C85.9707 70.2976 84.4773 70.8309 83.2827 71.8976C82.1307 72.9216 81.5547 74.2443 81.5547 75.8656C81.5547 77.4869 82.088 78.8309 83.1547 79.8976C84.264 80.9643 85.5227 81.4976 86.9307 81.4976C88.4667 81.4976 89.768 81.1136 90.8347 80.3456C91.944 79.5776 92.7973 78.4469 93.3947 76.9536C93.992 75.4603 94.2907 73.6896 94.2907 71.6416V70.2976Z" fill="white"/>
<path fill-rule="evenodd" clip-rule="evenodd" d="M106.636 40.2176V85.3376H112.46V82.5978C113.154 83.4648 113.964 84.2074 114.892 84.8256C116.428 85.8069 118.177 86.2976 120.14 86.2976C122.102 86.2976 123.852 85.8069 125.388 84.8256C126.966 83.8443 128.204 82.5003 129.1 80.7936C129.996 79.0869 130.444 77.1669 130.444 75.0336V63.3216C130.444 61.1883 129.996 59.2683 129.1 57.5616C128.204 55.8549 126.966 54.5109 125.388 53.5296C123.852 52.5483 122.102 52.0576 120.14 52.0576C118.177 52.0576 116.428 52.5483 114.892 53.5296C113.964 54.122 113.154 54.8544 112.46 55.7268V40.2176H106.636ZM112.46 63.4496C112.46 61.6149 113.036 60.1216 114.188 58.9696C115.34 57.8176 116.833 57.2416 118.668 57.2416C120.417 57.2416 121.846 57.8176 122.956 58.9696C124.065 60.0789 124.62 61.5296 124.62 63.3216V75.0336C124.62 76.8256 124.065 78.2976 122.956 79.4496C121.846 80.5589 120.417 81.1136 118.668 81.1136C116.833 81.1136 115.34 80.5376 114.188 79.3856C113.036 78.2336 112.46 76.7189 112.46 74.8416V63.4496Z" fill="white"/>
<path fill-rule="evenodd" clip-rule="evenodd" d="M136.948 40.2176V85.3376H142.772V82.5978C143.466 83.4648 144.277 84.2074 145.204 84.8256C146.74 85.8069 148.49 86.2976 150.452 86.2976C152.415 86.2976 154.164 85.8069 155.7 84.8256C157.279 83.8443 158.516 82.5003 159.412 80.7936C160.308 79.0869 160.756 77.1669 160.756 75.0336V63.3216C160.756 61.1883 160.308 59.2683 159.412 57.5616C158.516 55.8549 157.279 54.5109 155.7 53.5296C154.164 52.5483 152.415 52.0576 150.452 52.0576C148.49 52.0576 146.74 52.5483 145.204 53.5296C144.277 54.122 143.466 54.8544 142.772 55.7268V40.2176H136.948ZM142.772 63.4496C142.772 61.6149 143.348 60.1216 144.5 58.9696C145.652 57.8176 147.146 57.2416 148.98 57.2416C150.73 57.2416 152.159 57.8176 153.268 58.9696C154.378 60.0789 154.932 61.5296 154.932 63.3216V75.0336C154.932 76.8256 154.378 78.2976 153.268 79.4496C152.159 80.5589 150.73 81.1136 148.98 81.1136C147.146 81.1136 145.652 80.5376 144.5 79.3856C143.348 78.2336 142.772 76.7189 142.772 74.8416V63.4496Z" fill="white"/>
<path fill-rule="evenodd" clip-rule="evenodd" d="M169.259 31.3498C169.922 28.8652 171.234 27.2294 173.117 26.5195C174.027 26.18 175.972 26.3343 176.929 26.8281C178.41 27.5843 179.598 29.3282 180.185 31.5967C180.432 32.5381 180.493 32.6461 180.771 32.5689C182.237 32.0751 182.824 31.9979 183.657 32.1677C185.262 32.5072 186.589 33.7263 187.021 35.2696C187.253 36.072 187.206 37.5535 186.944 38.5875C186.234 41.2881 183.796 44.7912 181.095 46.9671L179.969 47.8776L180.648 48.2326C182.191 49.0505 183.364 51.0104 183.935 53.711C184.413 55.9333 184.537 61.103 184.182 63.958C183.503 69.5444 181.713 76.2729 178.919 83.8038C177.484 87.6464 175.925 91.3193 175.555 91.7051C175.339 91.952 175.061 92.06 174.675 92.06C174.29 92.06 174.012 91.952 173.796 91.7051C173.194 91.0723 170.308 83.7883 168.672 78.7575C166.172 71.0722 164.953 64.8531 164.953 59.6833C164.953 53.3406 166.095 49.7758 168.595 48.3715L169.413 47.8931L168.271 46.9826C165.524 44.7603 163.117 41.3035 162.407 38.5103C161.682 35.7171 162.654 33.3714 164.953 32.3837C165.663 32.0751 167.345 32.0905 168.101 32.3992C168.425 32.5381 168.749 32.6461 168.811 32.6461C168.873 32.6461 169.074 32.0597 169.259 31.3498ZM177.947 34.2047C177.654 31.643 176.913 29.8837 175.864 29.251C174.614 28.4794 173.055 29.1121 172.299 30.7016C171.604 32.1677 171.373 33.4331 171.373 35.8868C171.373 38.8961 171.82 41.2109 172.885 43.7573C173.441 45.0536 174.429 46.6894 174.675 46.6894C174.768 46.6894 175.092 46.2881 175.401 45.7943C177.253 42.9085 178.364 37.8776 177.947 34.2047ZM168.132 35.3313C167.87 35.177 167.453 34.9609 167.191 34.8529C166.543 34.606 166.095 34.6523 165.478 35.0689C164.243 35.8714 164.768 38.6029 166.666 41.3807C167.515 42.6153 169.398 44.6369 170.308 45.2696L170.802 45.6245L170.354 44.5289C169.459 42.3684 168.919 39.9301 168.734 37.1831C168.626 35.6554 168.611 35.6245 168.132 35.3313ZM184.089 38.8652C184.845 36.9362 184.629 35.3158 183.549 34.8683C183.256 34.7449 182.963 34.6523 182.901 34.6677C182.592 34.6986 181.635 35.0689 181.219 35.3313C180.744 35.607 180.74 35.6547 180.635 37.1046L180.632 37.1368C180.447 39.8529 179.892 42.3684 178.996 44.5289L178.549 45.6245L179.043 45.285C180.709 44.1276 183.364 40.748 184.089 38.8652ZM181.728 58.5104C181.574 53.0629 180.709 50.8406 178.549 50.2388C177.839 50.0382 171.373 50.069 170.663 50.2696C169.32 50.6554 168.503 51.8591 167.978 54.282L167.885 54.7141H169.197C170.401 54.7141 170.555 54.745 170.895 55.0999C171.466 55.6555 171.419 56.4271 170.802 56.9363C170.37 57.3067 170.216 57.3376 168.935 57.3376H167.53L167.623 60.4549C167.685 62.8469 167.793 64.1432 168.117 65.9487C168.487 68.1092 169.367 71.9982 169.753 73.1864L169.922 73.6957H171.064C172.716 73.6957 173.271 74.0506 173.287 75.1155C173.287 75.9488 172.746 76.3192 171.558 76.3192C170.678 76.3192 170.648 76.3346 170.756 76.6587C171.558 79.2822 174.521 87.276 174.675 87.276C174.681 87.276 174.686 87.276 174.691 87.2755C174.787 87.2653 174.863 87.0625 176.373 83.0322C178.41 77.5692 180.2 71.5043 180.987 67.3222C181.172 66.4117 181.311 65.6247 181.311 65.5784C181.311 65.5475 180.262 65.5166 178.981 65.5166C176.651 65.5166 176.203 65.424 175.802 64.9148C175.478 64.4981 175.57 63.6956 175.987 63.279C176.358 62.8932 176.404 62.8932 178.981 62.8932H181.604L181.713 62.1833C181.774 61.782 181.774 60.1308 181.728 58.5104Z" fill="white"/>
</svg>
