<svg width="611" height="636" viewBox="0 0 611 636" fill="none" xmlns="http://www.w3.org/2000/svg">
<path d="M377.32 1.50779C375.992 1.90622 324.195 42.6797 262.172 92.3515L149.414 182.398L90.7109 182.797C32.6719 183.195 31.7422 183.195 25.7656 186.25C15.9375 191.031 9.16406 197.805 4.38281 207.5L0 216.398V419.602L4.38281 428.5C9.16406 438.195 15.9375 444.969 25.7656 449.75C31.7422 452.805 32.6719 452.805 90.7109 453.203L149.414 453.602L262.039 543.648C324.062 593.188 376.125 634.094 377.984 634.492C387.945 637.148 398.703 632.898 403.75 624.266L407.07 618.555V17.4453L403.75 11.7343C398.703 3.10154 387.68 -1.14846 377.32 1.50779Z" fill="#450012"/>
<path d="M461.478 245.943C450.739 256.682 450.739 274.094 461.478 284.834L491.53 314.886L457.943 348.473C447.203 359.213 447.203 376.625 457.943 387.364C468.682 398.104 486.094 398.104 496.834 387.364L530.421 353.777L564.009 387.364C574.748 398.104 592.16 398.104 602.9 387.364C613.639 376.625 613.639 359.213 602.9 348.473L569.312 314.886L599.364 284.834C610.104 274.094 610.104 256.682 599.364 245.943C588.625 235.204 571.213 235.204 560.473 245.943L530.421 275.995L500.369 245.943C489.63 235.204 472.218 235.204 461.478 245.943Z" fill="#450012"/>
</svg>
