<svg width="636" height="636" viewBox="0 0 636 636" fill="none" xmlns="http://www.w3.org/2000/svg">
<path d="M377.32 1.50779C375.992 1.90622 324.195 42.6797 262.172 92.3515L149.414 182.398L90.7109 182.797C32.6719 183.195 31.7422 183.195 25.7656 186.25C15.9375 191.031 9.16406 197.805 4.38281 207.5L0 216.398V419.602L4.38281 428.5C9.16406 438.195 15.9375 444.969 25.7656 449.75C31.7422 452.805 32.6719 452.805 90.7109 453.203L149.414 453.602L262.039 543.648C324.062 593.188 376.125 634.094 377.984 634.492C387.945 637.148 398.703 632.898 403.75 624.266L407.07 618.555V17.4453L403.75 11.7343C398.703 3.10154 387.68 -1.14846 377.32 1.50779Z" fill="#450012"/>
<path d="M519.711 88.2344C510.281 91.0235 503.906 99.7891 503.906 110.148C503.906 118.117 504.836 119.711 517.719 134.055C538.172 156.766 550.523 174.828 562.477 199.266C593.422 262.75 598.336 335.531 576.156 402.867C563.805 440.32 546.008 470.469 517.719 501.945C504.836 516.289 503.906 517.883 503.906 525.852C503.906 541.125 517.32 551.617 532.062 547.766C536.578 546.57 540.031 543.914 548 535.813C586.648 496.102 616 440.984 628.086 385.07C650 283.602 620.914 178.148 549.594 101.648C537.508 88.6329 529.805 85.1797 519.711 88.2344Z" fill="#450012"/>
<path d="M456.094 152.383C445.867 155.703 440.156 163.406 440.156 173.633C440.156 181.867 442.281 185.719 453.438 197.937C483.32 230.875 498.859 271.781 498.859 318C498.859 363.82 483.586 404.594 453.969 437.398C442.148 450.68 440.156 454.133 440.156 462.101C440.156 472.859 446.531 481.226 456.758 483.883C463.133 485.476 470.305 484.148 475.75 480.297C481.328 476.18 498.062 456.391 506.961 443.109C515.594 430.492 527.016 407.515 532.195 393.039C541.758 366.078 546.406 328.89 543.883 300.336C539.367 249.601 521.969 208.031 489.43 169.914C475.219 153.18 466.852 148.797 456.094 152.383Z" fill="#450012"/>
</svg>
