<svg width="513" height="513" viewBox="0 0 513 513" fill="none" xmlns="http://www.w3.org/2000/svg">
<path d="M513 257C513 398.385 398.385 513 257 513C115.615 513 1 398.385 1 257C1 115.615 115.615 1 257 1C398.385 1 513 115.615 513 257Z" fill="white"/>
<path fill-rule="evenodd" clip-rule="evenodd" d="M233.5 0.5C248.833 0.5 264.167 0.5 279.5 0.5C363.756 10.3047 428.923 50.638 475 121.5C488.408 143.317 498.241 166.65 504.5 191.5C467.868 155.368 431.368 119.035 395 82.5C394.601 82.7284 394.435 83.0618 394.5 83.5C393.778 83.0825 393.278 82.4158 393 81.5C342.595 114.56 311.261 160.894 299 220.5C297.795 229.848 296.628 239.182 295.5 248.5C255.035 208.535 214.701 168.368 174.5 128C173.563 127.308 172.897 127.475 172.5 128.5C157.707 109.877 140.207 94.2105 120 81.5C110.442 107.297 107.109 133.964 110 161.5C115.78 214.383 137.113 259.716 174 297.5C170.829 313.188 167.163 328.855 163 344.5C137.014 367.271 134.681 392.271 156 419.5C160.026 422.698 163.859 426.032 167.5 429.5C167.062 429.435 166.728 429.601 166.5 430C194.035 457.368 221.368 484.868 248.5 512.5C243.5 512.5 238.5 512.5 233.5 512.5C143.856 501.612 76.3562 457.279 31 379.5C14.3053 348.029 4.1386 314.696 0.5 279.5C0.5 264.167 0.5 248.833 0.5 233.5C11.3875 143.857 55.7208 76.3573 133.5 31C164.971 14.3053 198.304 4.1386 233.5 0.5Z" fill="#FFB4C8"/>
<path fill-rule="evenodd" clip-rule="evenodd" d="M504.5 191.5C508.258 205.396 510.925 219.396 512.5 233.5C512.5 248.833 512.5 264.167 512.5 279.5C501.612 369.144 457.279 436.644 379.5 482C348.029 498.695 314.696 508.861 279.5 512.5C269.167 512.5 258.833 512.5 248.5 512.5C221.368 484.868 194.035 457.368 166.5 430C166.728 429.601 167.062 429.435 167.5 429.5C194.427 447.291 224.094 455.625 256.5 454.5C292.218 455.648 324.218 445.481 352.5 424C378.586 396.57 377.753 370.07 350 344.5C345.836 328.85 342.169 313.184 339 297.5C347.749 288.756 355.749 279.422 363 269.5C402.138 212.338 412.638 150.338 394.5 83.5C394.435 83.0618 394.601 82.7284 395 82.5C431.368 119.035 467.868 155.368 504.5 191.5Z" fill="#F54A79"/>
<path fill-rule="evenodd" clip-rule="evenodd" d="M295.5 248.5C295.5 249.5 295.5 250.5 295.5 251.5C285.996 249.026 276.33 247.193 266.5 246C258.988 245.178 251.655 245.345 244.5 246.5C235.357 247.413 226.357 249.079 217.5 251.5C214.939 205.804 199.939 164.804 172.5 128.5C172.897 127.475 173.563 127.308 174.5 128C214.701 168.368 255.035 208.535 295.5 248.5Z" fill="#F54A79"/>
<path fill-rule="evenodd" clip-rule="evenodd" d="M139.5 138.5C155.321 147.734 167.821 160.401 177 176.5C192.806 204.971 195.806 234.638 186 265.5C157.716 246.298 141.049 219.632 136 185.5C134.517 169.588 135.683 153.922 139.5 138.5Z" fill="#E0E4EC"/>
<path fill-rule="evenodd" clip-rule="evenodd" d="M371.5 138.5C372.497 138.47 373.164 138.97 373.5 140C383.906 183.713 373.573 221.713 342.5 254C337.343 258.078 332.01 261.912 326.5 265.5C314.401 222.395 323.734 184.562 354.5 152C360.236 147.481 365.903 142.981 371.5 138.5Z" fill="#E0E4EC"/>
<path fill-rule="evenodd" clip-rule="evenodd" d="M209.5 322.5C221.83 322.331 227.996 328.331 228 340.5C223.465 351.681 215.632 354.847 204.5 350C197.007 342.251 196.674 334.251 203.5 326C205.432 324.541 207.432 323.375 209.5 322.5Z" fill="#3D434A"/>
<path fill-rule="evenodd" clip-rule="evenodd" d="M295.5 322.5C309.054 321.885 315.221 328.219 314 341.5C310.927 350.29 304.76 353.79 295.5 352C285.354 347.227 282.521 339.727 287 329.5C289.441 326.546 292.275 324.213 295.5 322.5Z" fill="#3D434A"/>
<path d="M276.5 377C269.842 376.5 263.175 376.334 256.5 376.5H236.5C242.483 384.116 249.15 391.116 256.5 397.5C263.662 391.171 270.329 384.338 276.5 377Z" fill="#F9779B"/>
</svg>
