<svg width="20" height="20" viewBox="0 0 20 20" fill="none" xmlns="http://www.w3.org/2000/svg">
<path fill-rule="evenodd" clip-rule="evenodd" d="M10 20C15.5229 20 20 15.5229 20 10C20 4.47715 15.5229 0 10 0C4.47715 0 0 4.47715 0 10C0 15.5229 4.47715 20 10 20ZM4.96753 5.62822C4.63018 5.70085 4.29522 5.9562 4.14526 6.25137C4.13877 6.2644 4.13252 6.27651 4.12656 6.28811C4.11592 6.30889 4.10615 6.32793 4.09717 6.34736C4.01924 6.51614 4.00278 6.71326 4.00205 8.31377L4.00176 8.32925C3.99941 8.54478 3.99941 9.88943 4.00176 11.3208L4.00879 13.921L4.01172 13.9283V13.9445L4.0543 14.0337L4.06274 14.0546C4.08057 14.0991 4.1021 14.1417 4.12695 14.1818C4.15234 14.2227 4.18115 14.2612 4.21294 14.2968C4.33311 14.4382 4.49155 14.5288 4.68408 14.5653C4.74966 14.5793 5.23457 14.5887 5.75933 14.5887H6.71743L6.72212 12.2672L6.72915 9.948L6.74272 9.95818V9.96206L8.34888 11.1638C8.84487 11.5345 9.29434 11.869 9.59624 12.0925C9.83242 12.2673 9.97827 12.3742 9.9855 12.3773C9.98643 12.3776 9.99077 12.3754 9.99834 12.3708C10.003 12.3736 10.0064 12.3755 10.0085 12.3765C10.0099 12.3771 10.0111 12.3773 10.0111 12.3773C10.0176 12.3745 10.1371 12.2871 10.3338 12.1415C10.5571 11.9763 10.88 11.7361 11.2505 11.4595C11.376 11.3663 11.5067 11.2688 11.6408 11.1685L13.2704 9.948L13.2769 12.0898L13.2767 12.2742V14.5887H14.2411C14.7664 14.5887 15.2517 14.5793 15.3173 14.5653C15.5894 14.5137 15.7933 14.3544 15.9176 14.0968L15.9903 13.9445L15.998 9.97676C16.0037 6.82368 16.0042 6.56245 15.9048 6.34736C15.8958 6.32793 15.886 6.30889 15.8753 6.28811L15.863 6.26416L15.8566 6.25137C15.7066 5.9562 15.3713 5.70085 15.0336 5.62822C14.7593 5.56968 14.4803 5.60247 14.2411 5.72429C14.1973 5.74622 13.7983 6.03533 13.23 6.4562C13.2285 6.45254 13.2269 6.45154 13.2252 6.45283C13.2152 6.46138 12.9406 6.66714 12.5289 6.97554C12.2632 7.17463 11.9403 7.4165 11.5948 7.67568L9.99834 8.87183L8.40044 7.67568C8.21294 7.53516 8.03213 7.39976 7.86348 7.27346C7.57939 7.05977 7.30596 6.85513 7.05542 6.66858C6.96597 6.60156 6.89473 6.54814 6.84561 6.51118C6.79839 6.47568 6.77153 6.4554 6.76855 6.45283C6.76748 6.45203 6.7665 6.4521 6.76553 6.45317C6.19985 6.03394 5.80308 5.74614 5.75933 5.72429C5.52036 5.60247 5.2416 5.56968 4.96753 5.62822Z" fill="white"/>
</svg>
