<svg width="21" height="20" viewBox="0 0 21 20" fill="none" xmlns="http://www.w3.org/2000/svg">
<path d="M12.8298 19.9824C17.1536 18.8123 20.3346 14.8613 20.3346 10.1673C20.3346 5.78957 17.5679 2.05806 13.6876 0.625936C12.792 0.304912 11.8384 0.101755 10.845 0.0334698C10.5133 0.0108065 10.3354 -0.000347343 10.1535 8.23922e-06C9.97718 0.000352835 9.79713 0.0115067 9.46968 0.0334698C8.09293 0.12734 6.77684 0.494929 5.58293 1.08973C2.2707 2.76578 0 6.20136 0 10.1673C0 14.8851 3.21331 18.8524 7.57074 20C7.60044 19.8832 7.60028 19.6683 7.59132 19.02C7.58726 18.4966 7.57915 18.0625 7.57509 18.0625C7.57103 18.0585 7.42092 18.0788 7.24242 18.1112C6.17544 18.2857 5.22612 18.0463 4.62163 17.4418C4.38633 17.2065 4.3133 17.0929 4.078 16.6061C3.69665 15.8109 3.47351 15.5067 3.04348 15.1943C2.72704 14.9671 2.55664 14.7967 2.55664 14.7115C2.55664 14.5087 3.04753 14.4397 3.437 14.5898C3.94412 14.7805 4.28085 15.0726 4.65003 15.6365C5.1612 16.4114 5.8022 16.7562 6.61765 16.6954C6.93003 16.671 7.56292 16.4966 7.6116 16.4195C7.62377 16.3951 7.66434 16.2653 7.69274 16.1314C7.76982 15.8069 7.96861 15.3971 8.139 15.2065C8.20418 15.1331 8.2458 15.0912 8.2381 15.0626C8.22661 15.0199 8.10567 15.0067 7.79011 14.963C7.37224 14.9062 6.64605 14.7196 6.29715 14.5817C4.82853 14.0015 3.98063 12.9183 3.66419 11.2185C3.56277 10.6748 3.56277 9.34011 3.66419 8.91818C3.81024 8.3137 4.08206 7.76195 4.4553 7.30352L4.62974 7.0885L4.56889 6.89782C4.35793 6.24466 4.38227 5.39675 4.6338 4.60971C4.71494 4.36223 4.73117 4.33789 4.85288 4.31355C5.28697 4.23241 6.28092 4.58942 7.18968 5.14928L7.58726 5.39675L7.94021 5.31562C8.76783 5.12494 9.14918 5.08437 10.1837 5.08437C11.2223 5.08437 11.5996 5.12494 12.4272 5.31562L12.7842 5.39675L13.0966 5.20202C13.7173 4.81255 14.3299 4.52451 14.7478 4.41903C15.0926 4.33383 15.3928 4.29326 15.5226 4.31761C15.6362 4.33789 15.6565 4.36629 15.7336 4.60971C15.9649 5.33184 16.0054 6.24871 15.8269 6.80857L15.7417 7.07227L15.8229 7.1737C16.2204 7.66459 16.5328 8.26502 16.6829 8.83299C16.7884 9.23057 16.829 10.2448 16.76 10.8128C16.4598 13.2794 15.1088 14.606 12.5367 14.963C12.2392 15.0027 12.1265 15.0166 12.1163 15.0566C12.1098 15.0821 12.1448 15.1181 12.2 15.1781C12.3866 15.3728 12.5651 15.7217 12.6666 16.0828C12.7477 16.383 12.7558 16.5128 12.7761 18.2289C12.7906 19.2465 12.7956 19.7348 12.8298 19.9824Z" fill="white"/>
</svg>
