<svg width="20" height="20" viewBox="0 0 20 20" fill="none" xmlns="http://www.w3.org/2000/svg">
<path fill-rule="evenodd" clip-rule="evenodd" d="M10 20C15.5228 20 20 15.5228 20 10C20 4.47715 15.5228 0 10 0C4.47715 0 0 4.47715 0 10C0 15.5228 4.47715 20 10 20ZM4.76517 4.31412C4.93128 4.2182 5.16992 4.12929 5.34305 4.10122C5.50916 4.07548 5.83436 4.09186 5.99814 4.13631C6.25315 4.20416 6.51051 4.35389 6.71406 4.55744C6.87315 4.71653 6.92462 4.78438 7.01119 4.96921C7.22643 5.4114 7.24515 5.83954 7.07436 6.27237C6.89889 6.70754 6.53859 7.04912 6.08938 7.20119C5.91391 7.26202 5.86244 7.26904 5.58871 7.26904C5.31731 7.26904 5.2635 7.26202 5.09739 7.20353C4.82132 7.10995 4.67626 7.01637 4.46336 6.8058C4.25279 6.5929 4.15921 6.4455 4.06562 6.17177C4.00947 6.008 4.00011 5.94951 4.00011 5.69215C3.99777 5.35291 4.03053 5.22423 4.18026 4.93178C4.2949 4.71185 4.55226 4.43812 4.76517 4.31412ZM12.5443 7.49358C11.9197 7.54973 11.3699 7.79305 10.9043 8.21886L10.7709 8.34052V8.1744C10.7709 7.93576 10.7031 7.81176 10.5182 7.71818C10.4504 7.68309 10.3264 7.68075 9.34844 7.68543L8.2535 7.69244L8.15758 7.75561C8.14363 7.7648 8.13081 7.77126 8.11904 7.7772C8.10857 7.78247 8.09893 7.78734 8.09005 7.79332C7.98587 7.86353 7.98593 8.0884 7.98665 10.9501C7.98672 11.2085 7.98679 11.4883 7.98679 11.7914C7.98679 15.488 7.98913 15.6027 8.03124 15.6728C8.05463 15.7126 8.11546 15.7711 8.1646 15.8015L8.25584 15.8577L9.42096 15.8647C10.2001 15.8694 10.6142 15.8623 10.6773 15.846C10.8037 15.8132 10.9277 15.6986 10.9581 15.5933C10.9721 15.5371 10.9815 14.7136 10.9815 13.2584C10.9815 13.1461 10.9815 13.0391 10.9815 12.9373C10.9812 11.1548 10.9812 10.9325 11.0631 10.7463C11.0748 10.7198 11.0882 10.694 11.1034 10.6646C11.1093 10.6532 11.1154 10.6413 11.1219 10.6286C11.2505 10.376 11.4728 10.1841 11.7489 10.0882C11.922 10.025 12.2519 10.0227 12.4203 10.0788C12.6871 10.1701 12.9467 10.376 13.0403 10.5772C13.0453 10.5874 13.05 10.5971 13.0546 10.6064C13.0673 10.6324 13.0786 10.6554 13.0886 10.679C13.1653 10.8599 13.1665 11.073 13.1765 12.923C13.1771 13.0307 13.1777 13.1439 13.1784 13.263L13.1924 15.605L13.2603 15.6916C13.2977 15.7407 13.3726 15.8015 13.4287 15.8249C13.5246 15.8694 13.5901 15.8694 14.6032 15.8647L15.6747 15.8577L15.759 15.8015C15.8034 15.7711 15.8666 15.7079 15.897 15.6635L15.9531 15.5793L15.9602 12.8887C15.9672 10.0952 15.9625 9.94315 15.8689 9.57583C15.6864 8.84821 15.2302 8.24225 14.5751 7.8492C14.0674 7.54505 13.3655 7.42105 12.5443 7.49358ZM4.24579 8.03168C4.30896 7.89131 4.39552 7.8024 4.5359 7.73689C4.55127 7.72952 4.56462 7.72311 4.57831 7.71754C4.66883 7.68074 4.77431 7.68074 5.57702 7.68074C6.45671 7.68074 6.50584 7.68308 6.60645 7.72988C6.73513 7.78837 6.85211 7.89599 6.91762 8.01999L6.96909 8.11357V15.4365L6.91762 15.5325C6.88954 15.5839 6.82637 15.6635 6.77958 15.7056C6.74048 15.7395 6.71089 15.7659 6.67766 15.7864C6.55978 15.8591 6.3962 15.8577 5.60042 15.8577C4.56631 15.8577 4.56397 15.8577 4.3885 15.6962C4.35604 15.6667 4.32903 15.6508 4.30656 15.63C4.18326 15.5158 4.19665 15.254 4.19665 11.7751C4.19665 8.16504 4.19899 8.13697 4.24579 8.03168Z" fill="white"/>
</svg>
