<svg width="20" height="20" viewBox="0 0 20 20" fill="none" xmlns="http://www.w3.org/2000/svg">
<path fill-rule="evenodd" clip-rule="evenodd" d="M10 20C15.5228 20 20 15.5228 20 10C20 4.47715 15.5228 0 10 0C4.47715 0 0 4.47715 0 10C0 15.5228 4.47715 20 10 20ZM13.4873 14.6667C13.4873 14.8806 13.3126 15.0556 13.0991 15.0556H6.88648C6.67292 15.0556 6.49819 14.8806 6.49819 14.6667V5.33334C6.49819 5.11945 6.67292 4.94445 6.88648 4.94445H10.7693V6.88889C10.7693 7.3191 11.1164 7.66667 11.5459 7.66667H13.4873V14.6667ZM6.88648 3.77778C6.02982 3.77778 5.33333 4.47535 5.33333 5.33334V14.6667C5.33333 15.5247 6.02982 16.2222 6.88648 16.2222H13.0991C13.9557 16.2222 14.6522 15.5247 14.6522 14.6667V7.53299C14.6522 7.1198 14.4896 6.72362 14.1984 6.43195L12.0021 4.2323C11.7109 3.94063 11.3154 3.77778 10.9028 3.77778H6.88648Z" fill="white"/>
</svg>
